<?xml version="1.0" encoding="utf-8"?>
<!-- Generator: Adobe Illustrator 19.0.0, SVG Export Plug-In . SVG Version: 6.00 Build 0)  -->
<svg version="1.1" id="Warstwa_1" xmlns="http://www.w3.org/2000/svg" xmlns:xlink="http://www.w3.org/1999/xlink" x="0px" y="0px"
	 viewBox="-125 181 707.1 200" style="enable-background:new -125 181 707.1 200;" xml:space="preserve">
<style type="text/css">
	.st0{fill:#00918D;}
	.st1{fill:#DD7E1F;}
</style>
<path id="XMLID_848_" class="st0" d="M135.9,333.9H47.5c-10.4,0-19.2-3.4-26.3-10.3c-7.3-6.9-11-15.6-11-25.9v-42
	c0-10.2,3.7-18.8,11-25.8c7.2-6.9,16-10.4,26.3-10.4h88.4v26.7H47.5c-7.1,0-10.6,3.2-10.6,9.5v42c0,6.4,3.5,9.5,10.6,9.5h61.7v-17.3
	H73.1v-26.6h62.8V333.9z"/>
<path id="XMLID_846_" class="st0" d="M268.8,333.9h-26.6l-68.6-77.1v77.1H147V219.5h26.7l68.6,76.4v-76.4h26.6V333.9z"/>
<path id="XMLID_844_" class="st0" d="M582.1,333.9h-88.4c-10.4,0-19.2-3.4-26.3-10.3c-7.3-6.9-11-15.6-11-25.9v-42
	c0-10.2,3.6-18.8,11-25.8c7.2-6.9,16-10.4,26.3-10.4h88.4v26.7h-88.4c-7.1,0-10.6,3.2-10.6,9.5v42c0,6.4,3.5,9.5,10.6,9.5h88.4
	V333.9z"/>
<g id="XMLID_6_">
	<path id="XMLID_7_" class="st1" d="M328.2,318.6c-2.9,3.3-6,0.5-4.9,3.9c1.2,3.5-2.3,6,0.6,7.2c2.9,1.2,2.7,0.2,4.7-4.9
		C330.8,319.8,330.1,316.6,328.2,318.6z"/>
	<path id="XMLID_164_" class="st1" d="M421.9,259.3c2.1-2.1,3.5-3,2.6-7c-0.9-3.9-2.6-5.3-2.6-3.2c0,3.5,0.7,5.1-0.9,7
		c-1.6,1.9-3.9,5.6-2.8,8.6C419.3,267.6,419.8,261.4,421.9,259.3z"/>
	<path id="XMLID_165_" class="st1" d="M406.9,308c1.9-3.7,3.1-3.9,3.7-7.6c0.6-3.7-2.8-5.4-4-2.8c-1.5,3.2-5.1,1.2-5.1,4.8
		C401.5,306,405,311.7,406.9,308z"/>
	<path id="XMLID_166_" class="st1" d="M410.9,312.3c-0.6-3.4-11.5-0.1-13.8-5.2c-2.3-5.1-10.8-14.6-10.5-10.1
		c0.2,2.7,2.9,3.7,5.1,7.7c2.2,4,4.3,7.3,6.2,7.4C399.8,312.3,411.5,315.7,410.9,312.3z"/>
	<path id="XMLID_170_" class="st1" d="M428,328c9.4-13.3,14.9-29.6,14.9-47.1c0-19.4-6.8-37.2-18-51.3c-0.2-0.5-0.4-1-0.8-1.6
		c-1.9-2.6-5.6-7.3-6.5-6.4c-7.6-7.3-16.6-13.1-26.5-17c-1.3-0.8-2.1-1.2-2.1-1.2s0,0.1-0.2,0.3c-8.7-3.2-18.1-4.9-27.9-4.9
		c-45.2,0-82.1,36.8-82.1,82.1c0,45.2,36.8,82.1,82.1,82.1c25.5,0,48.4-11.7,63.4-30.1C425.8,331.4,427.2,329.7,428,328z
		 M324.7,249.8c-2.1-2.1,0.4-4.2,2.1-6c3.7-3.9,1.6,5.1,4.2,9c2.5,3.9-0.5,4.6-4.6,3.5C322.2,255.1,326.8,251.9,324.7,249.8z
		 M331.7,213.6c-4.6,1.4-13.4,13.4-14.8,10.9c-0.7-1.3,0.4-3.1,0.8-4.4c5.9-4.2,12.5-7.6,19.6-10C335.5,211.6,335,212.7,331.7,213.6
		z M307.8,257.9c4.2,2.3,8.6,3.2,4.4,6c-4.2,2.8-11.8,4.6-15.3,1.9c-2.4-1.9-5.8-3.5-8.4-3.1c0-0.1,0-0.2,0.1-0.2
		c0.1-0.1,0.2-0.2,0.3-0.4c2.3-3.9,1.9-9.5,5.1-8.3c3.2,1.2,1.9,5.1,4.2,4.9c2.3-0.2-1.2-5.3,0.5-7c1.6-1.6,0.5,6,4.2,6.3
		c3.7,0.2,4.4-2.1,4.6-6.5c0.2-4.4,3.5-8.1,7.2-6c3.7,2.1,7.2,6,1.9,6.3C311.1,251.9,303.7,255.6,307.8,257.9z M296.5,308.9
		c1.6,4.2-1.6,5.6,0.9,10.2c1.1,2.1,2.1,3.9,3,5.5c-6.2-8.6-10.6-18.5-12.8-29.3c0.7,0.3,1.5,0.4,2.3,0.4c4.6,0,5.8,3.9,5.3,5.8
		C294.8,303.3,294.8,304.7,296.5,308.9z M300.5,237.2c1.3-0.8,2.6-2.6,3.9-5c1.5-1.7,3-3.3,4.6-4.8c0.4,0.6,0.3,2-0.7,3.6
		c-1.6,2.7-5.9,6.1-9.6,8.8C299.3,238.9,299.9,238.1,300.5,237.2z M347.7,207.5c-0.2,0.3-0.5,0.6-0.7,1c-2.6,3.9-2.2,1.1-3.5-0.1
		C344.9,208.1,346.3,207.8,347.7,207.5z M307,332.5c2.5,1.6,5.4,2.5,6.8,0.3c2.1-3.2,0.9-8.8,3.9-10.4c3-1.6,1.9-9.3,0.9-12.7
		c-0.9-3.5,6.7-6,9.3-12.3c2.5-6.3,2.1-7.9-1.9-6.7c-3.9,1.2-9.5-5.9-11.6-12.9c-2.1-7-0.9-5.6,3.5,1.6c4.4,7.2,4.2,10,8.8,7.6
		c4.6-2.3,13-4.9,12.5-9.5c-0.5-4.6-3.5-7-5.8-4.6c-2.3,2.3-7.4-4.6-6.7-6.7c0.7-2.1,4.6,0.9,7.6,3.2c3,2.3,5.8,2.6,9.7,2.1
		c3.9-0.5,4.6,2.3,7,5.3c2.3,3,3.2-2.7,5.3,1c2.1,3.7-1.6,6,2.3,11.5c3.9,5.6,6.3,6.7,7,1.4c0.7-5.3,1.4-7.6,4.9-10.4
		c3.5-2.8,5.6-7.9,8.8-4c3.2,3.9,0.2,8.6,5.3,10.2c5.1,1.6,5.6,3,10.7,4.9c5.1,1.9,6.5-4.9,3.2-9c-3.2-4.2,3-5.6,7-6.7
		c3.9-1.2,6.5-4.9,4.6-9.7c-1.9-4.9-8.1-12.5-4.6-14.1c3.5-1.6,6.5,0.7,7.6,4.9c1.2,4.2,4.9,0.7,0.9-5.1c-3.9-5.8,1.6-7.4,2.1-11.4
		c0.5-3.9-6.5-7-8.3-11.4c-1-2.4-0.3-3.6,1.2-4.5c16,13.7,26.2,34,26.2,56.7c0,8.4-1.4,16.5-4,24.1c-0.9-1-2.1-1.6-3.8-1.4
		c-2.9,0.3-3.9-3.7-5.9-1.7c-1.7,1.7-1.4,3.2,1.4,4.3c2.8,1.1,3.7,5.1,5.1,3.6c0.4-0.5,1-0.5,1.5-0.4c-0.7,1.8-1.5,3.5-2.4,5.2
		c-0.8-0.6-1.9,1.4-3.5,3.2c-2,2.2,1.1-4.6-5.4-1.5c-6.5,3.1-5.7,4-8.2,6.2c-2.9,2.5-7,1.5-8.8,5.9c-1.9,4.3-6.6,14.2-2.2,11.7
		c4.5-2.5,9.9-7,12.8-5.1c0,0,0,0,0.1,0.1c-13.4,12.7-31.5,20.6-51.4,20.6C339.7,355.5,320.6,346.7,307,332.5z"/>
	<path id="XMLID_177_" class="st1" d="M413.5,287.7c2.3,1.4,3.6,3.4,2,5.1c-1.5,1.7,1.5,3.9,2.3,1.2c0.8-2.6-0.8-5.9-2.3-9.1
		c-1.5-3.2-2.3-7-3.4-3.9C411,284.2,411.2,286.3,413.5,287.7z"/>
</g>
<g id="XMLID_5_">
	<polygon id="XMLID_1_" class="st1" points="-82.9,267.5 -24.1,217.1 -53.5,290.3 -43.8,244.7 	"/>
	<path id="XMLID_9_" class="st0" d="M-18.1,278.7c4.4,7.9,5.5,15.2,2.2,20.2c-7.3,11.3-33.4,7.3-58.3-8.8
		c-24.9-16.1-39.2-38.3-31.9-49.6c2.5-3.9,7.2-5.9,13.3-6.4c-10.3-1-18.3,1.2-22,6.8c-8.2,12.7,8.4,38,37,56.5
		c28.6,18.5,58.5,23.3,66.7,10.6C-6.4,301.2-9.5,290.2-18.1,278.7z"/>
	<path id="XMLID_10_" class="st0" d="M-91.8,313.7c-20.1-13.9-31.5-34.7-31.3-53.5c-6.6,20.2,4,45.9,26.8,61.6
		c24.7,17,55.1,16.3,70.9-0.6C-43.2,331.2-69.5,329-91.8,313.7z"/>
	<path id="XMLID_4_" class="st0" d="M-111.1,334.2h23c0,0-13.6-4.3-19.1-13.4L-111.1,334.2z"/>
</g>
</svg>
