<?xml version="1.0" encoding="utf-8"?>
<!-- Generator: Adobe Illustrator 19.0.0, SVG Export Plug-In . SVG Version: 6.00 Build 0)  -->
<svg version="1.1" id="Warstwa_1" xmlns="http://www.w3.org/2000/svg" xmlns:xlink="http://www.w3.org/1999/xlink" x="0px" y="0px"
	 viewBox="-392 181 173.2 200" style="enable-background:new -392 181 173.2 200;" xml:space="preserve">
<style type="text/css">
	.st0{fill:#DD7E1F;}
	.st1{fill:#00918D;}
</style>
<g id="XMLID_5_">
	<polygon id="XMLID_1_" class="st0" points="-329,268.1 -241.9,193.3 -285.5,301.9 -271.1,234.3 	"/>
	<path id="XMLID_9_" class="st1" d="M-232.9,284.7c6.6,11.8,8.2,22.5,3.3,30c-10.8,16.7-49.6,10.9-86.5-13
		c-36.9-23.9-58.1-56.9-47.3-73.6c3.7-5.7,10.7-8.8,19.8-9.4c-15.3-1.5-27.1,1.8-32.6,10.2c-12.2,18.8,12.4,56.3,54.9,83.8
		c42.5,27.5,86.8,34.6,98.9,15.8C-215.6,318-220.2,301.8-232.9,284.7z"/>
	<path id="XMLID_10_" class="st1" d="M-342.3,336.5c-29.9-20.5-46.8-51.4-46.4-79.4c-9.7,30,5.9,68.1,39.8,91.4
		c36.6,25.2,81.7,24.2,105.2-0.8C-270.1,362.6-309.2,359.2-342.3,336.5z"/>
	<path id="XMLID_4_" class="st1" d="M-370.8,367h34.1c0,0-20.1-6.4-28.3-19.8L-370.8,367z"/>
</g>
</svg>
